<svg id="Layer_2" data-name="Layer 2" xmlns="http://www.w3.org/2000/svg" viewBox="0 0 550 550">
  <path d="M217.26,544.55s-150-46.95-150-157c0-94.32,35.62-134.39,95-178.64S252.85,129,254.48,91.2s-8-70.45-10.91-83.11c-3.78-16.33,77.31,46.41,89.18,95s0,90.66-19.43,113.33-17.81,61.8,6.75,69.62c22.4,4.32,49.11-.81,53.7-49.11,4.31-45.34-3.24-71.24,59.37-96.07,24.9-9.71-3.66,24.28-3.58,46.35,1.35,23.21,2.77,27.05,32.92,67.94s30,162.6-22.66,213.31C385.17,521.07,331.13,532.68,323,532.68s21.59-13,29.14-39.4,7.29-54.24-11.33-70.43c-15.48-13.46-38.05-16.73-58.29-11.07-23.7,6.64-45.33,10.26-59.91-10.79s-22.12-36.7-16.19-77.72-34,34-40.47,52.89-17.54,48.58-3.78,92.83C174.8,509.47,227.81,546.07,217.26,544.55Z"/>
</svg>
