<svg id="Layer_2" data-name="Layer 2" xmlns="http://www.w3.org/2000/svg" viewBox="0 0 550 550">
  <g>
    <g>
      <path d="M347.79,448.25c-21.39,14.83-46.15,23.28-72.47,23.28s-51.08-8.45-72.48-23.25l1.46-2.53,42.72-74h56.63l42.69,74Z"/>
      <path d="M221.74,229.87l-28.47,49.31H132c3.2-47.22,21.89-89.19,49.87-118.33Z"/>
      <path d="M346.34,141.66l-42.72,74H247.05l-42.73-74c21-14.57,45.2-22.87,71-22.87S325.39,127.12,346.34,141.66Z"/>
      <path d="M418.64,279.18H356.7l-28.12-48.7,40.2-69.63C396.73,190,415.45,232,418.64,279.18Z"/>
      <path d="M418.64,308.2c-3.19,47.23-21.88,89.17-49.86,118.34l-40.17-69.6L356.7,308.2Z"/>
      <path d="M221.74,357.52l-39.85,69c-28-29.17-46.67-71.11-49.87-118.34h61.25Z"/>
    </g>
    <path d="M324.2,54.32V85.06l-1.92-.67c-2.41-.84-5-1.59-7.84-2.35a148.7,148.7,0,0,0-78.19,0c-2.87.76-5.45,1.51-7.86,2.35l-1.95.67V54.32a48.88,48.88,0,0,1,97.76,0Z"/>
    <g>
      <path d="M544.67,191.47v2.9h.67v-2.9Z"/>
      <rect x="544.67" y="191.47" width="0.67" height="2.9"/>
    </g>
    <polygon points="330.52 293.69 322.14 308.2 311.31 326.98 302.75 341.81 247.19 341.81 239.01 327.62 239.01 327.59 227.81 308.2 219.42 293.69 227.81 279.18 239.01 259.79 247.19 245.6 302.75 245.6 311.31 260.4 322.14 279.18 330.52 293.69"/>
    <g>
      <path d="M171.76,121.05l-1.31,1.37c-2,2.12-4.24,4.52-6.59,7.19-12.16,13.65-28.61,34.54-46.67,64.06l-.4.7H2.66l1.45-2.24c15.27-23.74,41.56-55.69,80-73.17,28.62-13,52.86-11.09,70.53-5.37a92,92,0,0,1,11.53,4.59c1.36.64,2.7,1.3,4,2Z"/>
      <path d="M397.22,541.65l-1.36,2.9-1.28-2.93c-8.3-18.52-20.66-36.37-36.71-53.06-2.88-3-5.55-5.6-8.13-8.06l-1.54-1.43,1.89-.92c3.83-1.89,7.63-3.95,11.4-6.22A177.89,177.89,0,0,0,385.21,455a237.92,237.92,0,0,0,29.14-29.28l2.44-2.91.11,3.78c.06,1.62.09,3.22.12,4.84C417.89,474.17,411.21,511.26,397.22,541.65Z"/>
    </g>
    <g>
      <path d="M201.8,479.07l-1.54,1.43c-2.61,2.46-5.25,5.08-8.13,8.06-16.08,16.69-28.41,34.54-36.71,53.06l-1.31,2.93-1.33-2.9c-14-30.39-20.67-67.48-19.8-110.24,0-1.62.06-3.22.12-4.84l.11-3.78,2.44,2.91a235.79,235.79,0,0,0,29.58,29.69A185.14,185.14,0,0,0,189,472.25c3.6,2.15,7.26,4.1,10.91,5.9Z"/>
      <path d="M545.34,194.37v-2.9h-.67v2.9H433.21l-.43-.7c-17.82-29.23-34.13-49.95-46.24-63.62-2.52-2.84-4.84-5.4-7-7.63l-1.31-1.37,1.68-.9c1.25-.67,2.59-1.33,3.95-2a93.42,93.42,0,0,1,12.34-4.85c17.59-5.51,41.53-7.17,69.72,5.63,38.4,17.48,64.69,49.43,80,73.17l1.45,2.24Z"/>
    </g>
  </g>
</svg>
