<svg id="Layer_2" data-name="Layer 2" xmlns="http://www.w3.org/2000/svg" viewBox="0 0 550 550">
  <path d="M533.73,423.69h0c-4.38-14.7-22-19.65-31.41-22.31a49.42,49.42,0,0,1-4.94-1.55c-2.22-1-2.6-8.17-3.17-19-.48-9.33-1.15-22.12-3.3-38.75-5-39.15-58.94-93.6-81.88-115.19-20.61-19.44-72.74-22.81-110.81-25.27l-6.93-.45c-37.2-2.47-40.44-5.26-54.65-26.29-3.75-5.53-4.87-10.65-3.32-15.24,3.15-9.37,16.72-14.85,22.42-16.78C288.25,131.74,348.1,108.5,378.88,95c10.51-4.58,11.55-11.23,11.23-14.79-.92-10.4-14.46-21-32.2-25.25-15.16-3.62-28.1-.63-38.49,1.77-7.25,1.67-13,3-16.43,1,1.22-1.83,8.44-5.63,14.31-8.72,15.92-8.37,35.75-18.8,33.68-31.63A11.8,11.8,0,0,0,345.35,9c-14.19-9-52.86.66-85,10.05-31.84,9.32-65.69,47.46-82,65.79-2.67,3-4.86,5.47-6.47,7.18-4,4.27-9.75,3.61-18.39,2.61-13-1.51-30.81-3.58-56.11,9.64-38.73,20.23-65.21,55.43-81,107.6-5,16.62-3.75,30.55,3.73,41.38,12.61,18.29,38.89,22,49.6,22.8,6.38.44,11.87.42,16.3.43,7.09,0,12.18,0,13.51,1.89S99.3,286,97.85,290c-7.4,20.39,3.85,51.08,9.26,65.83l.81,2.22c5.11,14.08,5.18,37.79,3.65,71.47-1.09,23.79-4.69,37.12-16.79,62-5.09,10.43-11.29,9-19.89,6.94-9.49-2.24-21.3-5-32.88,10.42-7.61,10.15-7.88,21.11-.78,31.7a9.17,9.17,0,0,0,7.66,4H106a12.86,12.86,0,0,0,9.13-3.77c13.67-13.81,27.63-31.27,41.51-51.93,7.2-11.41,12.81-19.93,17.31-26.78,16.12-24.54,16.43-25,15-45.11-.36-4.82-.8-10.82-1.1-18.67C186,352.22,203,341.84,218,332.68l1.33-.81c14.68-9,43.9-12.34,69.15-.85,3.32,1.52,13.45,6.13,17.81,10.78a5.41,5.41,0,0,1,.81,6.32,5.34,5.34,0,0,1-5.58,2.91,76.31,76.31,0,0,0-31,2.05c-59.51,16-53.73,60.84-53.68,61.19.06.61,6.18,57.74,87.43,71.05-68.07,4.54-123.58,13.7-145,24.21-9.38,4.59-14,13.36-13.61,26.07a9.31,9.31,0,0,0,9.27,8.95H442.05c7.47,0,12.2-5.17,14.21-7.37,4.09-4.42,4.59-10.37,4.3-14.58-.5-7-3.71-14.48-7.65-17.7-2.66-2.19-2.25-11.93-1.86-21.36l.06-1.36c.24-6,1.56-9.86,3.73-11s5.71.61,8.23,2.3l2.83,1.91c12.8,8.68,19.85,13.46,45.33,7.42a29,29,0,0,0,19.31-14.08C538.13,455.8,537.61,436.78,533.73,423.69ZM125.47,190.39A22.42,22.42,0,1,1,103.07,168,22.43,22.43,0,0,1,125.47,190.39Z"/>
</svg>
